<?xml version="1.0" encoding="iso-8859-1"?>

<svg xmlns="http://www.w3.org/2000/svg" version="1.1" width="2.4098in" height="3.0000in" viewBox="0 0 6125 7625">

<path style="fill:#000000" d="M0,0 L6125,0 6125,7625 0,7625 0,0z" />
<path style="fill:#ffcc00" d="M250,250 L5875,250 5500,625 625,625 250,250z" />
<path style="fill:#ffcc00" d="M5875,250 L5875,7375 5500,7000 5500,625 5875,250z" />
<path style="fill:#ffcc00" d="M625,625 L625,7000 250,7375 250,250 625,625z" />
<path style="fill:#ffcc00" d="M625,7000 L5500,7000 5875,7375 250,7375 625,7000z" />
<path style="fill:#be9800" d="M5500,625 L5375,750 750,750 625,625 5500,625z" />
<path style="fill:#be9800" d="M5500,7000 L5375,6875 5375,750 5500,625 5500,7000z" />
<path style="fill:#be9800" d="M250,7375 L125,7500 125,125 250,250 250,7375z" />
<path style="fill:#be9800" d="M5875,7375 L6000,7500 125,7500 250,7375 5875,7375z" />
<path style="fill:#ffec9f" d="M5875,250 L6000,125 125,125 250,250 5875,250z" />
<path style="fill:#ffec9f" d="M5875,7375 L6000,7500 6000,125 5875,250 5875,7375z" />
<path style="fill:#ffec9f" d="M625,7000 L750,6875 750,750 625,625 625,7000z" />
<path style="fill:#ffec9f" d="M5500,7000 L5375,6875 750,6875 625,7000 5500,7000z" />
<path style="fill:#ffe477" d="M1250,125 L1375,125 1375,250 1250,250 1250,125z" />
<path style="fill:#ffe477" d="M6000,1250 L6000,1375 5875,1375 5875,1250 6000,1250z" />
<path style="fill:#ffe477" d="M750,1250 L750,1375 625,1375 625,1250 750,1250z" />
<path style="fill:#ffe477" d="M500,125 L625,125 625,250 500,250 500,125z" />
<path style="fill:#ffe477" d="M6000,500 L6000,625 5875,625 5875,500 6000,500z" />
<path style="fill:#ffe477" d="M250,125 L375,125 375,250 250,250 250,125z" />
<path style="fill:#ffe477" d="M6000,250 L6000,375 5875,375 5875,250 6000,250z" />
<path style="fill:#ffe477" d="M2500,125 L2625,125 2625,250 2500,250 2500,125z" />
<path style="fill:#ffe477" d="M6000,2500 L6000,2625 5875,2625 5875,2500 6000,2500z" />
<path style="fill:#ffe477" d="M750,2500 L750,2625 625,2625 625,2500 750,2500z" />
<path style="fill:#ffe477" d="M1000,6875 L1125,6875 1125,7000 1000,7000 1000,6875z" />
<path style="fill:#ffe477" d="M3750,125 L3875,125 3875,250 3750,250 3750,125z" />
<path style="fill:#ffe477" d="M6000,3750 L6000,3875 5875,3875 5875,3750 6000,3750z" />
<path style="fill:#ffe477" d="M750,3750 L750,3875 625,3875 625,3750 750,3750z" />
<path style="fill:#ffe477" d="M2250,6875 L2375,6875 2375,7000 2250,7000 2250,6875z" />
<path style="fill:#ffe477" d="M6000,6000 L6000,6125 5875,6125 5875,6000 6000,6000z" />
<path style="fill:#ffe477" d="M750,6000 L750,6125 625,6125 625,6000 750,6000z" />
<path style="fill:#ffe477" d="M4500,6875 L4625,6875 4625,7000 4500,7000 4500,6875z" />
<path style="fill:#ffe477" d="M1500,125 L1625,125 1625,250 1500,250 1500,125z" />
<path style="fill:#ffe477" d="M6000,1500 L6000,1625 5875,1625 5875,1500 6000,1500z" />
<path style="fill:#ffe477" d="M750,1500 L750,1625 625,1625 625,1500 750,1500z" />
<path style="fill:#ffe477" d="M750,125 L875,125 875,250 750,250 750,125z" />
<path style="fill:#ffe477" d="M6000,750 L6000,875 5875,875 5875,750 6000,750z" />
<path style="fill:#ffe477" d="M750,750 L750,875 625,875 625,750 750,750z" />
<path style="fill:#ffe477" d="M2750,125 L2875,125 2875,250 2750,250 2750,125z" />
<path style="fill:#ffe477" d="M6000,2750 L6000,2875 5875,2875 5875,2750 6000,2750z" />
<path style="fill:#ffe477" d="M750,2750 L750,2875 625,2875 625,2750 750,2750z" />
<path style="fill:#ffe477" d="M1250,6875 L1375,6875 1375,7000 1250,7000 1250,6875z" />
<path style="fill:#ffe477" d="M4000,125 L4125,125 4125,250 4000,250 4000,125z" />
<path style="fill:#ffe477" d="M6000,4000 L6000,4125 5875,4125 5875,4000 6000,4000z" />
<path style="fill:#ffe477" d="M750,4000 L750,4125 625,4125 625,4000 750,4000z" />
<path style="fill:#ffe477" d="M2500,6875 L2625,6875 2625,7000 2500,7000 2500,6875z" />
<path style="fill:#ffe477" d="M6000,6250 L6000,6375 5875,6375 5875,6250 6000,6250z" />
<path style="fill:#ffe477" d="M750,6250 L750,6375 625,6375 625,6250 750,6250z" />
<path style="fill:#ffe477" d="M4750,6875 L4875,6875 4875,7000 4750,7000 4750,6875z" />
<path style="fill:#ffe477" d="M6000,6500 L6000,6625 5875,6625 5875,6500 6000,6500z" />
<path style="fill:#ffe477" d="M750,6500 L750,6625 625,6625 625,6500 750,6500z" />
<path style="fill:#ffe477" d="M5000,6875 L5125,6875 5125,7000 5000,7000 5000,6875z" />
<path style="fill:#ffe477" d="M6000,6750 L6000,6875 5875,6875 5875,6750 6000,6750z" />
<path style="fill:#ffe477" d="M750,6750 L750,6875 625,6875 625,6750 750,6750z" />
<path style="fill:#ffe477" d="M5250,6875 L5375,6875 5375,7000 5250,7000 5250,6875z" />
<path style="fill:#ffe477" d="M1750,125 L1875,125 1875,250 1750,250 1750,125z" />
<path style="fill:#ffe477" d="M6000,1750 L6000,1875 5875,1875 5875,1750 6000,1750z" />
<path style="fill:#ffe477" d="M750,1750 L750,1875 625,1875 625,1750 750,1750z" />
<path style="fill:#ffe477" d="M1000,125 L1125,125 1125,250 1000,250 1000,125z" />
<path style="fill:#ffe477" d="M6000,1000 L6000,1125 5875,1125 5875,1000 6000,1000z" />
<path style="fill:#ffe477" d="M750,1000 L750,1125 625,1125 625,1000 750,1000z" />
<path style="fill:#ffe477" d="M3000,125 L3125,125 3125,250 3000,250 3000,125z" />
<path style="fill:#ffe477" d="M6000,3000 L6000,3125 5875,3125 5875,3000 6000,3000z" />
<path style="fill:#ffe477" d="M750,3000 L750,3125 625,3125 625,3000 750,3000z" />
<path style="fill:#ffe477" d="M1500,6875 L1625,6875 1625,7000 1500,7000 1500,6875z" />
<path style="fill:#ffe477" d="M4250,125 L4375,125 4375,250 4250,250 4250,125z" />
<path style="fill:#ffe477" d="M6000,4250 L6000,4375 5875,4375 5875,4250 6000,4250z" />
<path style="fill:#ffe477" d="M750,4250 L750,4375 625,4375 625,4250 750,4250z" />
<path style="fill:#ffe477" d="M2750,6875 L2875,6875 2875,7000 2750,7000 2750,6875z" />
<path style="fill:#ffe477" d="M2000,125 L2125,125 2125,250 2000,250 2000,125z" />
<path style="fill:#ffe477" d="M6000,2000 L6000,2125 5875,2125 5875,2000 6000,2000z" />
<path style="fill:#ffe477" d="M750,2000 L750,2125 625,2125 625,2000 750,2000z" />
<path style="fill:#ffe477" d="M3250,125 L3375,125 3375,250 3250,250 3250,125z" />
<path style="fill:#ffe477" d="M6000,3250 L6000,3375 5875,3375 5875,3250 6000,3250z" />
<path style="fill:#ffe477" d="M750,3250 L750,3375 625,3375 625,3250 750,3250z" />
<path style="fill:#ffe477" d="M1750,6875 L1875,6875 1875,7000 1750,7000 1750,6875z" />
<path style="fill:#ffe477" d="M6000,5500 L6000,5625 5875,5625 5875,5500 6000,5500z" />
<path style="fill:#ffe477" d="M750,5500 L750,5625 625,5625 625,5500 750,5500z" />
<path style="fill:#ffe477" d="M4000,6875 L4125,6875 4125,7000 4000,7000 4000,6875z" />
<path style="fill:#ffe477" d="M4500,125 L4625,125 4625,250 4500,250 4500,125z" />
<path style="fill:#ffe477" d="M6000,4500 L6000,4625 5875,4625 5875,4500 6000,4500z" />
<path style="fill:#ffe477" d="M750,4500 L750,4625 625,4625 625,4500 750,4500z" />
<path style="fill:#ffe477" d="M3000,6875 L3125,6875 3125,7000 3000,7000 3000,6875z" />
<path style="fill:#ffe477" d="M5000,125 L5125,125 5125,250 5000,250 5000,125z" />
<path style="fill:#ffe477" d="M6000,5000 L6000,5125 5875,5125 5875,5000 6000,5000z" />
<path style="fill:#ffe477" d="M750,5000 L750,5125 625,5125 625,5000 750,5000z" />
<path style="fill:#ffe477" d="M3500,6875 L3625,6875 3625,7000 3500,7000 3500,6875z" />
<path style="fill:#ffe477" d="M5500,125 L5625,125 5625,250 5500,250 5500,125z" />
<path style="fill:#ffe477" d="M6000,7000 L6000,7125 5875,7125 5875,7000 6000,7000z" />
<path style="fill:#ffe477" d="M2250,125 L2375,125 2375,250 2250,250 2250,125z" />
<path style="fill:#ffe477" d="M6000,2250 L6000,2375 5875,2375 5875,2250 6000,2250z" />
<path style="fill:#ffe477" d="M750,2250 L750,2375 625,2375 625,2250 750,2250z" />
<path style="fill:#ffe477" d="M750,6875 L875,6875 875,7000 750,7000 750,6875z" />
<path style="fill:#ffe477" d="M3500,125 L3625,125 3625,250 3500,250 3500,125z" />
<path style="fill:#ffe477" d="M6000,3500 L6000,3625 5875,3625 5875,3500 6000,3500z" />
<path style="fill:#ffe477" d="M750,3500 L750,3625 625,3625 625,3500 750,3500z" />
<path style="fill:#ffe477" d="M2000,6875 L2125,6875 2125,7000 2000,7000 2000,6875z" />
<path style="fill:#ffe477" d="M6000,5750 L6000,5875 5875,5875 5875,5750 6000,5750z" />
<path style="fill:#ffe477" d="M750,5750 L750,5875 625,5875 625,5750 750,5750z" />
<path style="fill:#ffe477" d="M4250,6875 L4375,6875 4375,7000 4250,7000 4250,6875z" />
<path style="fill:#ffe477" d="M4750,125 L4875,125 4875,250 4750,250 4750,125z" />
<path style="fill:#ffe477" d="M6000,4750 L6000,4875 5875,4875 5875,4750 6000,4750z" />
<path style="fill:#ffe477" d="M750,4750 L750,4875 625,4875 625,4750 750,4750z" />
<path style="fill:#ffe477" d="M3250,6875 L3375,6875 3375,7000 3250,7000 3250,6875z" />
<path style="fill:#ffe477" d="M5250,125 L5375,125 5375,250 5250,250 5250,125z" />
<path style="fill:#ffe477" d="M6000,5250 L6000,5375 5875,5375 5875,5250 6000,5250z" />
<path style="fill:#ffe477" d="M750,5250 L750,5375 625,5375 625,5250 750,5250z" />
<path style="fill:#ffe477" d="M3750,6875 L3875,6875 3875,7000 3750,7000 3750,6875z" />
<path style="fill:#ffe477" d="M5750,125 L5875,125 5875,250 5750,250 5750,125z" />
<path style="fill:#ffe477" d="M6000,7250 L6000,7375 5875,7375 5875,7250 6000,7250z" />
<path style="fill:#e1b400" d="M1250,250 L1375,250 1375,625 1250,625 1250,250z" />
<path style="fill:#e1b400" d="M5875,1250 L5875,1375 5500,1375 5500,1250 5875,1250z" />
<path style="fill:#e1b400" d="M625,1250 L625,1375 250,1375 250,1250 625,1250z" />
<path style="fill:#e1b400" d="M500,250 L625,250 625,625 500,500 500,250z" />
<path style="fill:#e1b400" d="M5875,500 L5875,625 5500,625 5625,500 5875,500z" />
<path style="fill:#e1b400" d="M250,500 L250,625 625,625 500,500 250,500z" />
<path style="fill:#e1b400" d="M500,7375 L625,7375 625,7000 500,7125 500,7375z" />
<path style="fill:#e1b400" d="M250,250 L375,250 375,375 250,250z" />
<path style="fill:#e1b400" d="M5875,250 L5875,375 5750,375 5875,250z" />
<path style="fill:#e1b400" d="M2500,250 L2625,250 2625,625 2500,625 2500,250z" />
<path style="fill:#e1b400" d="M5875,2500 L5875,2625 5500,2625 5500,2500 5875,2500z" />
<path style="fill:#e1b400" d="M625,2500 L625,2625 250,2625 250,2500 625,2500z" />
<path style="fill:#e1b400" d="M1000,7000 L1125,7000 1125,7375 1000,7375 1000,7000z" />
<path style="fill:#e1b400" d="M3750,250 L3875,250 3875,625 3750,625 3750,250z" />
<path style="fill:#e1b400" d="M5875,3750 L5875,3875 5500,3875 5500,3750 5875,3750z" />
<path style="fill:#e1b400" d="M625,3750 L625,3875 250,3875 250,3750 625,3750z" />
<path style="fill:#e1b400" d="M2250,7000 L2375,7000 2375,7375 2250,7375 2250,7000z" />
<path style="fill:#e1b400" d="M5875,6000 L5875,6125 5500,6125 5500,6000 5875,6000z" />
<path style="fill:#e1b400" d="M625,6000 L625,6125 250,6125 250,6000 625,6000z" />
<path style="fill:#e1b400" d="M4500,7000 L4625,7000 4625,7375 4500,7375 4500,7000z" />
<path style="fill:#e1b400" d="M1500,250 L1625,250 1625,625 1500,625 1500,250z" />
<path style="fill:#e1b400" d="M5875,1500 L5875,1625 5500,1625 5500,1500 5875,1500z" />
<path style="fill:#e1b400" d="M625,1500 L625,1625 250,1625 250,1500 625,1500z" />
<path style="fill:#e1b400" d="M750,250 L875,250 875,625 750,625 750,250z" />
<path style="fill:#e1b400" d="M5875,750 L5875,875 5500,875 5500,750 5875,750z" />
<path style="fill:#e1b400" d="M250,750 L250,875 625,875 625,750 250,750z" />
<path style="fill:#e1b400" d="M2750,250 L2875,250 2875,625 2750,625 2750,250z" />
<path style="fill:#e1b400" d="M5875,2750 L5875,2875 5500,2875 5500,2750 5875,2750z" />
<path style="fill:#e1b400" d="M625,2750 L625,2875 250,2875 250,2750 625,2750z" />
<path style="fill:#e1b400" d="M1250,7000 L1375,7000 1375,7375 1250,7375 1250,7000z" />
<path style="fill:#e1b400" d="M4000,250 L4125,250 4125,625 4000,625 4000,250z" />
<path style="fill:#e1b400" d="M5875,4000 L5875,4125 5500,4125 5500,4000 5875,4000z" />
<path style="fill:#e1b400" d="M625,4000 L625,4125 250,4125 250,4000 625,4000z" />
<path style="fill:#e1b400" d="M2500,7000 L2625,7000 2625,7375 2500,7375 2500,7000z" />
<path style="fill:#e1b400" d="M5875,6250 L5875,6375 5500,6375 5500,6250 5875,6250z" />
<path style="fill:#e1b400" d="M625,6250 L625,6375 250,6375 250,6250 625,6250z" />
<path style="fill:#e1b400" d="M4750,7000 L4875,7000 4875,7375 4750,7375 4750,7000z" />
<path style="fill:#e1b400" d="M5875,6500 L5875,6625 5500,6625 5500,6500 5875,6500z" />
<path style="fill:#e1b400" d="M625,6500 L625,6625 250,6625 250,6500 625,6500z" />
<path style="fill:#e1b400" d="M5000,7000 L5125,7000 5125,7375 5000,7375 5000,7000z" />
<path style="fill:#e1b400" d="M5875,6750 L5875,6875 5500,6875 5500,6750 5875,6750z" />
<path style="fill:#e1b400" d="M625,6750 L625,6875 250,6875 250,6750 625,6750z" />
<path style="fill:#e1b400" d="M5250,7000 L5375,7000 5375,7375 5250,7375 5250,7000z" />
<path style="fill:#e1b400" d="M1750,250 L1875,250 1875,625 1750,625 1750,250z" />
<path style="fill:#e1b400" d="M5875,1750 L5875,1875 5500,1875 5500,1750 5875,1750z" />
<path style="fill:#e1b400" d="M625,1750 L625,1875 250,1875 250,1750 625,1750z" />
<path style="fill:#e1b400" d="M1000,250 L1125,250 1125,625 1000,625 1000,250z" />
<path style="fill:#e1b400" d="M5875,1000 L5875,1125 5500,1125 5500,1000 5875,1000z" />
<path style="fill:#e1b400" d="M625,1000 L625,1125 250,1125 250,1000 625,1000z" />
<path style="fill:#e1b400" d="M3000,250 L3125,250 3125,625 3000,625 3000,250z" />
<path style="fill:#e1b400" d="M5875,3000 L5875,3125 5500,3125 5500,3000 5875,3000z" />
<path style="fill:#e1b400" d="M625,3000 L625,3125 250,3125 250,3000 625,3000z" />
<path style="fill:#e1b400" d="M1500,7000 L1625,7000 1625,7375 1500,7375 1500,7000z" />
<path style="fill:#e1b400" d="M4250,250 L4375,250 4375,625 4250,625 4250,250z" />
<path style="fill:#e1b400" d="M5875,4250 L5875,4375 5500,4375 5500,4250 5875,4250z" />
<path style="fill:#e1b400" d="M625,4250 L625,4375 250,4375 250,4250 625,4250z" />
<path style="fill:#e1b400" d="M2750,7000 L2875,7000 2875,7375 2750,7375 2750,7000z" />
<path style="fill:#e1b400" d="M2000,250 L2125,250 2125,625 2000,625 2000,250z" />
<path style="fill:#e1b400" d="M5875,2000 L5875,2125 5500,2125 5500,2000 5875,2000z" />
<path style="fill:#e1b400" d="M625,2000 L625,2125 250,2125 250,2000 625,2000z" />
<path style="fill:#e1b400" d="M3250,250 L3375,250 3375,625 3250,625 3250,250z" />
<path style="fill:#e1b400" d="M5875,3250 L5875,3375 5500,3375 5500,3250 5875,3250z" />
<path style="fill:#e1b400" d="M625,3250 L625,3375 250,3375 250,3250 625,3250z" />
<path style="fill:#e1b400" d="M1750,7000 L1875,7000 1875,7375 1750,7375 1750,7000z" />
<path style="fill:#e1b400" d="M5875,5500 L5875,5625 5500,5625 5500,5500 5875,5500z" />
<path style="fill:#e1b400" d="M625,5500 L625,5625 250,5625 250,5500 625,5500z" />
<path style="fill:#e1b400" d="M4000,7000 L4125,7000 4125,7375 4000,7375 4000,7000z" />
<path style="fill:#e1b400" d="M4500,250 L4625,250 4625,625 4500,625 4500,250z" />
<path style="fill:#e1b400" d="M5875,4500 L5875,4625 5500,4625 5500,4500 5875,4500z" />
<path style="fill:#e1b400" d="M625,4500 L625,4625 250,4625 250,4500 625,4500z" />
<path style="fill:#e1b400" d="M3000,7000 L3125,7000 3125,7375 3000,7375 3000,7000z" />
<path style="fill:#e1b400" d="M5000,250 L5125,250 5125,625 5000,625 5000,250z" />
<path style="fill:#e1b400" d="M5875,5000 L5875,5125 5500,5125 5500,5000 5875,5000z" />
<path style="fill:#e1b400" d="M625,5000 L625,5125 250,5125 250,5000 625,5000z" />
<path style="fill:#e1b400" d="M3500,7000 L3625,7000 3625,7375 3500,7375 3500,7000z" />
<path style="fill:#e1b400" d="M5500,250 L5625,250 5625,500 5500,625 5500,250z" />
<path style="fill:#e1b400" d="M5875,7000 L5875,7125 5625,7125 5500,7000 5875,7000z" />
<path style="fill:#e1b400" d="M251,7000 L251,7125 501,7125 626,7000 251,7000z" />
<path style="fill:#e1b400" d="M5500,7374 L5625,7374 5625,7124 5500,6999 5500,7374z" />
<path style="fill:#e1b400" d="M2250,250 L2375,250 2375,625 2250,625 2250,250z" />
<path style="fill:#e1b400" d="M5875,2250 L5875,2375 5500,2375 5500,2250 5875,2250z" />
<path style="fill:#e1b400" d="M625,2250 L625,2375 250,2375 250,2250 625,2250z" />
<path style="fill:#e1b400" d="M750,7000 L875,7000 875,7375 750,7375 750,7000z" />
<path style="fill:#e1b400" d="M3500,250 L3625,250 3625,625 3500,625 3500,250z" />
<path style="fill:#e1b400" d="M5875,3500 L5875,3625 5500,3625 5500,3500 5875,3500z" />
<path style="fill:#e1b400" d="M625,3500 L625,3625 250,3625 250,3500 625,3500z" />
<path style="fill:#e1b400" d="M2000,7000 L2125,7000 2125,7375 2000,7375 2000,7000z" />
<path style="fill:#e1b400" d="M5875,5750 L5875,5875 5500,5875 5500,5750 5875,5750z" />
<path style="fill:#e1b400" d="M625,5750 L625,5875 250,5875 250,5750 625,5750z" />
<path style="fill:#e1b400" d="M4250,7000 L4375,7000 4375,7375 4250,7375 4250,7000z" />
<path style="fill:#e1b400" d="M4750,250 L4875,250 4875,625 4750,625 4750,250z" />
<path style="fill:#e1b400" d="M5875,4750 L5875,4875 5500,4875 5500,4750 5875,4750z" />
<path style="fill:#e1b400" d="M625,4750 L625,4875 250,4875 250,4750 625,4750z" />
<path style="fill:#e1b400" d="M3250,7000 L3375,7000 3375,7375 3250,7375 3250,7000z" />
<path style="fill:#e1b400" d="M5250,250 L5375,250 5375,625 5250,625 5250,250z" />
<path style="fill:#e1b400" d="M5875,5250 L5875,5375 5500,5375 5500,5250 5875,5250z" />
<path style="fill:#e1b400" d="M625,5250 L625,5375 250,5375 250,5250 625,5250z" />
<path style="fill:#e1b400" d="M3750,7000 L3875,7000 3875,7375 3750,7375 3750,7000z" />
<path style="fill:#e1b400" d="M5750,250 L5875,250 5750,375 5750,250z" />
<path style="fill:#e1b400" d="M5875,7250 L5875,7375 5750,7250 5875,7250z" />
<path style="fill:#e1b400" d="M250,7250 L250,7375 375,7250 250,7250z" />
<path style="fill:#e1b400" d="M5750,7375 L5875,7375 5750,7250 5750,7375z" />
<path style="fill:#987a00" d="M1250,625 L1375,625 1375,750 1250,750 1250,625z" />
<path style="fill:#987a00" d="M5500,1250 L5500,1375 5375,1375 5375,1250 5500,1250z" />
<path style="fill:#987a00" d="M250,1250 L250,1375 125,1375 125,1250 250,1250z" />
<path style="fill:#987a00" d="M2500,625 L2625,625 2625,750 2500,750 2500,625z" />
<path style="fill:#987a00" d="M5500,2500 L5500,2625 5375,2625 5375,2500 5500,2500z" />
<path style="fill:#987a00" d="M250,2500 L250,2625 125,2625 125,2500 250,2500z" />
<path style="fill:#987a00" d="M1000,7375 L1125,7375 1125,7500 1000,7500 1000,7375z" />
<path style="fill:#987a00" d="M3750,625 L3875,625 3875,750 3750,750 3750,625z" />
<path style="fill:#987a00" d="M5500,3750 L5500,3875 5375,3875 5375,3750 5500,3750z" />
<path style="fill:#987a00" d="M250,3750 L250,3875 125,3875 125,3750 250,3750z" />
<path style="fill:#987a00" d="M2250,7375 L2375,7375 2375,7500 2250,7500 2250,7375z" />
<path style="fill:#987a00" d="M5500,6000 L5500,6125 5375,6125 5375,6000 5500,6000z" />
<path style="fill:#987a00" d="M250,6000 L250,6125 125,6125 125,6000 250,6000z" />
<path style="fill:#987a00" d="M4500,7375 L4625,7375 4625,7500 4500,7500 4500,7375z" />
<path style="fill:#987a00" d="M1500,625 L1625,625 1625,750 1500,750 1500,625z" />
<path style="fill:#987a00" d="M5500,1500 L5500,1625 5375,1625 5375,1500 5500,1500z" />
<path style="fill:#987a00" d="M250,1500 L250,1625 125,1625 125,1500 250,1500z" />
<path style="fill:#987a00" d="M750,625 L875,625 875,750 750,750 750,625z" />
<path style="fill:#987a00" d="M5500,750 L5500,875 5375,875 5375,750 5500,750z" />
<path style="fill:#987a00" d="M125,750 L125,875 250,875 250,750 125,750z" />
<path style="fill:#987a00" d="M2750,625 L2875,625 2875,750 2750,750 2750,625z" />
<path style="fill:#987a00" d="M5500,2750 L5500,2875 5375,2875 5375,2750 5500,2750z" />
<path style="fill:#987a00" d="M250,2750 L250,2875 125,2875 125,2750 250,2750z" />
<path style="fill:#987a00" d="M1250,7375 L1375,7375 1375,7500 1250,7500 1250,7375z" />
<path style="fill:#987a00" d="M4000,625 L4125,625 4125,750 4000,750 4000,625z" />
<path style="fill:#987a00" d="M5500,4000 L5500,4125 5375,4125 5375,4000 5500,4000z" />
<path style="fill:#987a00" d="M250,4000 L250,4125 125,4125 125,4000 250,4000z" />
<path style="fill:#987a00" d="M2500,7375 L2625,7375 2625,7500 2500,7500 2500,7375z" />
<path style="fill:#987a00" d="M5500,6250 L5500,6375 5375,6375 5375,6250 5500,6250z" />
<path style="fill:#987a00" d="M250,6250 L250,6375 125,6375 125,6250 250,6250z" />
<path style="fill:#987a00" d="M4750,7375 L4875,7375 4875,7500 4750,7500 4750,7375z" />
<path style="fill:#987a00" d="M5500,6500 L5500,6625 5375,6625 5375,6500 5500,6500z" />
<path style="fill:#987a00" d="M250,6500 L250,6625 125,6625 125,6500 250,6500z" />
<path style="fill:#987a00" d="M5000,7375 L5125,7375 5125,7500 5000,7500 5000,7375z" />
<path style="fill:#987a00" d="M5500,6750 L5500,6875 5375,6875 5375,6750 5500,6750z" />
<path style="fill:#987a00" d="M250,6750 L250,6875 125,6875 125,6750 250,6750z" />
<path style="fill:#987a00" d="M5250,7375 L5375,7375 5375,7500 5250,7500 5250,7375z" />
<path style="fill:#987a00" d="M250,7000 L250,7125 125,7125 125,7000 250,7000z" />
<path style="fill:#987a00" d="M5500,7375 L5625,7375 5625,7500 5500,7500 5500,7375z" />
<path style="fill:#987a00" d="M250,7250 L250,7375 125,7375 125,7250 250,7250z" />
<path style="fill:#987a00" d="M5750,7375 L5875,7375 5875,7500 5750,7500 5750,7375z" />
<path style="fill:#987a00" d="M1750,625 L1875,625 1875,750 1750,750 1750,625z" />
<path style="fill:#987a00" d="M5500,1750 L5500,1875 5375,1875 5375,1750 5500,1750z" />
<path style="fill:#987a00" d="M250,1750 L250,1875 125,1875 125,1750 250,1750z" />
<path style="fill:#987a00" d="M250,7375 L375,7375 375,7500 250,7500 250,7375z" />
<path style="fill:#987a00" d="M1000,625 L1125,625 1125,750 1000,750 1000,625z" />
<path style="fill:#987a00" d="M5500,1000 L5500,1125 5375,1125 5375,1000 5500,1000z" />
<path style="fill:#987a00" d="M250,1000 L250,1125 125,1125 125,1000 250,1000z" />
<path style="fill:#987a00" d="M3000,625 L3125,625 3125,750 3000,750 3000,625z" />
<path style="fill:#987a00" d="M5500,3000 L5500,3125 5375,3125 5375,3000 5500,3000z" />
<path style="fill:#987a00" d="M250,3000 L250,3125 125,3125 125,3000 250,3000z" />
<path style="fill:#987a00" d="M1500,7375 L1625,7375 1625,7500 1500,7500 1500,7375z" />
<path style="fill:#987a00" d="M4250,625 L4375,625 4375,750 4250,750 4250,625z" />
<path style="fill:#987a00" d="M5500,4250 L5500,4375 5375,4375 5375,4250 5500,4250z" />
<path style="fill:#987a00" d="M250,4250 L250,4375 125,4375 125,4250 250,4250z" />
<path style="fill:#987a00" d="M2750,7375 L2875,7375 2875,7500 2750,7500 2750,7375z" />
<path style="fill:#987a00" d="M2000,625 L2125,625 2125,750 2000,750 2000,625z" />
<path style="fill:#987a00" d="M5500,2000 L5500,2125 5375,2125 5375,2000 5500,2000z" />
<path style="fill:#987a00" d="M250,2000 L250,2125 125,2125 125,2000 250,2000z" />
<path style="fill:#987a00" d="M500,7375 L625,7375 625,7500 500,7500 500,7375z" />
<path style="fill:#987a00" d="M3250,625 L3375,625 3375,750 3250,750 3250,625z" />
<path style="fill:#987a00" d="M5500,3250 L5500,3375 5375,3375 5375,3250 5500,3250z" />
<path style="fill:#987a00" d="M250,3250 L250,3375 125,3375 125,3250 250,3250z" />
<path style="fill:#987a00" d="M1750,7375 L1875,7375 1875,7500 1750,7500 1750,7375z" />
<path style="fill:#987a00" d="M5500,5500 L5500,5625 5375,5625 5375,5500 5500,5500z" />
<path style="fill:#987a00" d="M250,5500 L250,5625 125,5625 125,5500 250,5500z" />
<path style="fill:#987a00" d="M4000,7375 L4125,7375 4125,7500 4000,7500 4000,7375z" />
<path style="fill:#987a00" d="M4500,625 L4625,625 4625,750 4500,750 4500,625z" />
<path style="fill:#987a00" d="M5500,4500 L5500,4625 5375,4625 5375,4500 5500,4500z" />
<path style="fill:#987a00" d="M250,4500 L250,4625 125,4625 125,4500 250,4500z" />
<path style="fill:#987a00" d="M3000,7375 L3125,7375 3125,7500 3000,7500 3000,7375z" />
<path style="fill:#987a00" d="M5000,625 L5125,625 5125,750 5000,750 5000,625z" />
<path style="fill:#987a00" d="M5500,5000 L5500,5125 5375,5125 5375,5000 5500,5000z" />
<path style="fill:#987a00" d="M250,5000 L250,5125 125,5125 125,5000 250,5000z" />
<path style="fill:#987a00" d="M3500,7375 L3625,7375 3625,7500 3500,7500 3500,7375z" />
<path style="fill:#987a00" d="M2250,625 L2375,625 2375,750 2250,750 2250,625z" />
<path style="fill:#987a00" d="M5500,2250 L5500,2375 5375,2375 5375,2250 5500,2250z" />
<path style="fill:#987a00" d="M250,2250 L250,2375 125,2375 125,2250 250,2250z" />
<path style="fill:#987a00" d="M750,7375 L875,7375 875,7500 750,7500 750,7375z" />
<path style="fill:#987a00" d="M3500,625 L3625,625 3625,750 3500,750 3500,625z" />
<path style="fill:#987a00" d="M5500,3500 L5500,3625 5375,3625 5375,3500 5500,3500z" />
<path style="fill:#987a00" d="M250,3500 L250,3625 125,3625 125,3500 250,3500z" />
<path style="fill:#987a00" d="M2000,7375 L2125,7375 2125,7500 2000,7500 2000,7375z" />
<path style="fill:#987a00" d="M5500,5750 L5500,5875 5375,5875 5375,5750 5500,5750z" />
<path style="fill:#987a00" d="M250,5750 L250,5875 125,5875 125,5750 250,5750z" />
<path style="fill:#987a00" d="M4250,7375 L4375,7375 4375,7500 4250,7500 4250,7375z" />
<path style="fill:#987a00" d="M4750,625 L4875,625 4875,750 4750,750 4750,625z" />
<path style="fill:#987a00" d="M5500,4750 L5500,4875 5375,4875 5375,4750 5500,4750z" />
<path style="fill:#987a00" d="M250,4750 L250,4875 125,4875 125,4750 250,4750z" />
<path style="fill:#987a00" d="M3250,7375 L3375,7375 3375,7500 3250,7500 3250,7375z" />
<path style="fill:#987a00" d="M5250,625 L5375,625 5375,750 5250,750 5250,625z" />
<path style="fill:#987a00" d="M250,500 L125,500 125,625 250,625 250,500z" />
<path style="fill:#987a00" d="M250,250 L125,250 125,375 250,375 250,250z" />
<path style="fill:#987a00" d="M5500,5250 L5500,5375 5375,5375 5375,5250 5500,5250z" />
<path style="fill:#987a00" d="M250,5250 L250,5375 125,5375 125,5250 250,5250z" />
<path style="fill:#987a00" d="M3750,7375 L3875,7375 3875,7500 3750,7500 3750,7375z" />
<path style="fill:#e1b400" d="M375,375 L250,250 250,375 375,375z" />
<path style="fill:#e1b400" d="M375,7250 L250,7375 375,7375 375,7250z" />
<path style="fill:#cccccc" d="M750,750 L5375,750 5375,6875 750,6875 750,750z" />
<path style="fill:#000000" d="M1375,1375 L4750,1375 4750,6250 1375,6250 1375,1375z" />
<path style="fill:#ffffff" d="M4750,6250 L4812,6313 1312,6313 1374,6250 4750,6250z" />
<path style="fill:#ffffff" d="M1375,6249 L1313,6312 1312,1312 1375,1374 1375,6249z" />
<path style="fill:#ffffff" d="M2951,4461 L2951,4202 2952,4159 2957,4116 2964,4075 2973,4035 2984,3996 2998,3957 3013,3920 3030,3883 3049,3846 3068,3811 3089,3775 3111,3740 3134,3706 3157,3671 3180,3637 3204,3603 3228,3569 3251,3535 3274,3501 3297,3467 3319,3432 3340,3397 3359,3362 3378,3326 3395,3289 3410,3252 3424,3214 3435,3176 3444,3136 3451,3096 3456,3054 3457,3012 3456,2982 3455,2952 3452,2922 3448,2894 3443,2866 3437,2840 3431,2814 3423,2789 3415,2765 3406,2743 3396,2722 3386,2702 3375,2683 3364,2666 3352,2650 3340,2636 3326,2622 3310,2608 3293,2595 3276,2582 3257,2571 3237,2560 3216,2550 3195,2541 3172,2533 3149,2526 3126,2520 3101,2515 3076,2511 3050,2508 3024,2507 2998,2506 2981,2506 2963,2507 2947,2509 2930,2511 2914,2514 2898,2517 2883,2521 2868,2525 2853,2530 2839,2536 2825,2541 2812,2548 2799,2554 2786,2562 2774,2569 2763,2577 2739,2595 2718,2613 2700,2630 2685,2648 2673,2665 2664,2683 2659,2700 2657,2718 2659,2724 2663,2734 2670,2745 2680,2759 2692,2775 2706,2791 2722,2808 2739,2824 2749,2833 2759,2843 2768,2854 2777,2864 2785,2875 2793,2887 2800,2898 2807,2910 2813,2922 2818,2935 2822,2947 2826,2960 2829,2973 2831,2986 2833,2999 2833,3012 2833,3025 2832,3038 2831,3051 2829,3063 2827,3075 2824,3087 2821,3099 2818,3109 2814,3120 2809,3130 2804,3139 2799,3148 2794,3156 2788,3164 2782,3171 2775,3177 2767,3184 2758,3190 2748,3197 2739,3202 2729,3208 2718,3212 2708,3217 2697,3221 2685,3224 2674,3227 2662,3230 2649,3232 2637,3234 2624,3235 2611,3236 2598,3236 2585,3236 2572,3235 2558,3233 2546,3231 2533,3228 2521,3225 2508,3221 2497,3217 2485,3212 2475,3207 2464,3201 2454,3195 2445,3188 2436,3181 2428,3174 2421,3166 2413,3156 2406,3146 2399,3135 2392,3124 2386,3111 2380,3098 2375,3085 2370,3071 2366,3056 2362,3041 2359,3026 2356,3010 2354,2993 2352,2977 2351,2959 2351,2942 2352,2911 2354,2881 2359,2851 2364,2821 2372,2791 2381,2762 2392,2734 2405,2706 2419,2679 2434,2652 2452,2626 2471,2600 2491,2576 2514,2552 2538,2528 2563,2506 2590,2485 2618,2465 2647,2447 2677,2430 2708,2414 2740,2399 2773,2386 2807,2374 2841,2364 2877,2355 2913,2347 2950,2341 2987,2336 3026,2333 3065,2331 3104,2330 3144,2331 3182,2333 3221,2337 3259,2343 3296,2350 3332,2359 3368,2369 3403,2381 3437,2394 3470,2408 3502,2423 3533,2440 3563,2458 3592,2477 3620,2497 3646,2518 3671,2540 3695,2564 3717,2589 3737,2615 3756,2643 3774,2672 3790,2701 3804,2732 3816,2763 3827,2795 3837,2828 3844,2862 3850,2896 3855,2931 3857,2966 3858,3001 3856,3050 3851,3097 3843,3142 3833,3185 3819,3226 3803,3266 3785,3304 3765,3341 3742,3376 3719,3410 3693,3443 3666,3475 3639,3506 3610,3537 3580,3566 3550,3595 3520,3623 3489,3651 3459,3678 3428,3705 3398,3733 3369,3760 3340,3787 3313,3814 3287,3841 3262,3869 3238,3897 3216,3926 3197,3956 3179,3986 3164,4017 3151,4049 3147,4062 3142,4076 3138,4090 3134,4105 3129,4121 3126,4137 3122,4154 3119,4171 3115,4188 3113,4206 3110,4224 3108,4243 3106,4262 3105,4281 3104,4300 3104,4319 3104,4461 2951,4461z" />
<path style="fill:#999999" d="M5376,750 L751,750 751,813 5376,813 5376,750z" />
<path style="fill:#999999" d="M5312,750 L5375,750 5375,6875 5312,6875 5312,750z" />
<circle style="fill:#ffffff" cx="3028" cy="5044" r="242" />

</svg>
